<?xml version="1.0" encoding="UTF-8"?>
<svg id="Capa_1" data-name="Capa 1" xmlns="http://www.w3.org/2000/svg" viewBox="0 0 1000 1000">
  <defs>
    <style>
      .cls-1 {
        fill: #fff;
      }

      .cls-2 {
        fill: #005b2e;
      }
    </style>
  </defs>
  <path d="M933.31,327.91c-10.66-94.81-42.25-126.51-57.42-141.74-1.66-1.67-3.23-3.24-4-4.17-5.29-6.46-18.25-18.84-45.61-29.2-29.82-11.29-68.2-17.02-114.08-17.02h-267.21c-1.27,0-2.42.72-2.99,1.85l-68.85,138.21c-1.11,2.22.51,4.83,2.99,4.83h333.91c19.2,0,37.25,5.47,52.19,15.81,23.55,16.31,34.47,40.14,32.43,70.81l-.04.33v.51c-.03.93-.61,13.3-7.96,28.79-14.93,31.46-47.6,51.79-83.24,51.79h-102.64c-2.47,0-4.09-2.6-3-4.82l46.47-94.37c1.09-2.22-.52-4.82-3-4.82h-146.53c-1.27,0-2.43.72-3,1.86l-49.48,100.27c-.56,1.14-1.72,1.86-3,1.86h-161.04c-1.23,0-2.35.67-2.94,1.75L54.47,858.82c-1.2,2.23.41,4.93,2.94,4.93h149.26c1.27,0,2.43-.72,2.99-1.85l143.2-287.66c.56-1.13,1.72-1.85,2.99-1.85h19.1c2.48,0,4.09,2.6,3,4.82l-139.01,281.73c-1.1,2.22.52,4.82,3,4.82h496.77c35.3,0,65.13-12.17,88.68-36.17,34.03-34.7,44.75-84.84,44.41-102.39-.07-3.37-.1-5.94-.1-8.34v-150.78c0-2.3-2.28-3.92-4.45-3.15l-132.62,46.8c-1.34.47-2.23,1.73-2.23,3.15v98.04c0,11.7-2.71,20.24-8.05,25.39-6.49,6.26-15.74,6.38-16.86,6.36l-.2-.02h-251.24c-2.47,0-4.09-2.6-3-4.82l76.74-155.84c.56-1.14,1.72-1.86,3-1.86h202.98c1.17-.03,29.04-.7,64.44-13.56,46.68-16.96,84.94-47.37,110.72-87.99.04-.06.07-.11.11-.17,2.64-3.51,10.2-14.79,16.27-35.9,9.01-31.34,11.03-69.9,6.01-114.6ZM706.28,772.65c4.13.15,23.17.02,38.41-14.3,11.74-11.04,17.7-27,17.7-47.44v-76.82c0-1.42.89-2.68,2.23-3.15l72.62-25.63c2.17-.77,4.45.85,4.45,3.15v108.38c0,2.6.03,5.36.1,8.92.18,9.57-7.94,52.37-35.83,80.8-17.69,18.04-40.32,27.18-67.26,27.18h-448.51c-2.48,0-4.09-2.6-3-4.82l223.2-452.37c.56-1.14,1.72-1.86,3-1.86h79.67c2.47,0,4.09,2.6,3,4.82l-191.22,388.31c-1.09,2.22.52,4.82,3,4.82h298.45Z"/>
  <g>
    <polygon class="cls-1" points="76.97 848.75 199.45 848.75 344.49 557.39 389.41 557.39 437.31 463.7 285.19 463.7 76.97 848.75"/>
    <g>
      <path class="cls-1" d="M584.94,463.7l-52.41,101.42h202.94s104.55-2,163.21-95.26c0,0,31.3-37.23,19.72-140.27-11.58-103.04-48.7-126.58-58.12-138.08-9.42-11.51-46.07-40.73-148.08-40.72h-259.99l-57.24,114.89h315.07c21.62,0,42.94,6.17,60.73,18.48,21.25,14.71,41.76,40.36,38.86,84.14,0,0-.1,15.43-9.41,35.07-17.63,37.17-55.65,60.36-96.79,60.36h-118.49Z"/>
      <path class="cls-2" d="M738.7,848.75h-478.01l241.3-489.05h120.54l-195.96,397.94h280.05s40.77,2.54,40.77-46.73v-89.79l109.3-38.57v134.3c0,2.87.04,5.75.1,8.63.36,18.36-20.51,123.27-118.08,123.27"/>
    </g>
  </g>
</svg>